<?xml version="1.0" encoding="UTF-8"?>
<svg xmlns="http://www.w3.org/2000/svg" xmlns:xlink="http://www.w3.org/1999/xlink" width="745.1pt" height="356.3pt" viewBox="0 0 745.1 356.3" version="1.1">
<defs>
<clipPath id="clip1">
  <path d="M 16 0 L 436 0 L 436 356.300781 L 16 356.300781 Z M 16 0 "/>
</clipPath>
<clipPath id="clip2">
  <path d="M 18 0 L 435 0 L 435 356.300781 L 18 356.300781 Z M 18 0 "/>
</clipPath>
<clipPath id="clip3">
  <path d="M 16 0 L 437 0 L 437 356.300781 L 16 356.300781 Z M 16 0 "/>
</clipPath>
</defs>
<g id="surface1">
<path style="fill:none;stroke-width:2;stroke-linecap:butt;stroke-linejoin:miter;stroke:rgb(0%,0%,0%);stroke-opacity:1;stroke-miterlimit:4;" d="M 1088.710938 2827.296875 C 1157.148438 2844.484375 1118.59375 2748.078125 1174.140625 2720.148438 C 1383.046875 2642.648438 1450.625 2890.65625 1548.125 3150.421875 C 1562.421875 3202.726563 1523.125 3217.492188 1512.304688 3180.578125 C 1422.8125 2967.648438 1340.859375 2703.351563 1203.28125 2819.640625 C 1161.796875 2983.3125 1141.210938 3149.5625 1141.914063 3317.960938 C 1481.132813 3314.445313 1262.773438 3272.453125 1559.960938 3450.851563 L 1694.414063 3236.085938 C 1709.804688 3215.617188 1729.570313 3211.359375 1754.609375 3226.671875 C 2158.476563 3456.828125 2723.28125 3284.171875 2661.25 2679.640625 C 3026.445313 2491.945313 3391.640625 2423.46875 3756.835938 2441.789063 C 3870.859375 2447.453125 3816.71875 2441.085938 3757.5 2424.210938 C 3099.921875 2236.789063 2328.90625 1348.546875 2319.53125 792.179688 C 2226.40625 1113.742188 2000.625 1390.109375 1707.148438 1609.132813 C 1671.09375 1635.226563 1623.710938 1591.828125 1677.578125 1546.671875 C 2365.898438 888.859375 527.539063 696.242188 746.132813 1118.46875 C 755.234375 1135.03125 736.875 1135.382813 729.023438 1126.789063 C 271.25 696.28125 172.226563 1134.210938 625.976563 1346.203125 C 655.351563 1360.734375 641.171875 1380.890625 603.59375 1377.53125 C 501.914063 1364.5625 427.65625 1224.640625 370.703125 1300.65625 C 180.546875 1542.257813 378.164063 2097.140625 690 2109.835938 C 718.007813 2112.960938 736.640625 2131.203125 699.53125 2134.445313 C 85.664063 2151.4375 510.507813 2612.101563 803.203125 2359.796875 C 835.078125 2340.539063 860.234375 2364.757813 825.429688 2393.585938 C 691.523438 2444.289063 998.75 2804.71875 1088.710938 2827.296875 Z M 1088.710938 2827.296875 " transform="matrix(0.1,0,0,-0.1,0,356.3)"/>
<path style="fill:none;stroke-width:2;stroke-linecap:butt;stroke-linejoin:miter;stroke:rgb(0%,0%,0%);stroke-opacity:1;stroke-miterlimit:4;" d="M 2679.140625 743.234375 C 2694.882813 703.546875 2680.78125 857.0625 2795.585938 922.960938 C 3182.773438 1290.03125 3515.507813 1674.367188 3756.367188 2100.890625 C 3901.289063 2141.945313 3943.554688 2222.53125 3857.8125 2201.828125 C 3379.453125 2033.664063 2636.640625 1105.109375 2679.140625 743.234375 Z M 2679.140625 743.234375 " transform="matrix(0.1,0,0,-0.1,0,356.3)"/>
<path style="fill:none;stroke-width:2;stroke-linecap:butt;stroke-linejoin:miter;stroke:rgb(0%,0%,0%);stroke-opacity:1;stroke-miterlimit:4;" d="M 3110.078125 796.671875 C 3122.8125 765.578125 3115.3125 866.710938 3207.929688 923.976563 C 3533.632813 1223.46875 3823.632813 1561.046875 4006.171875 1919.601563 C 4123.125 1958.195313 4143.398438 2019.445313 4074.21875 1999.445313 C 3705 1839.914063 3107.5 1072.726563 3110.078125 796.671875 Z M 3110.078125 796.671875 " transform="matrix(0.1,0,0,-0.1,0,356.3)"/>
<g clip-path="url(#clip1)" clip-rule="nonzero">
<path style="fill:none;stroke-width:2;stroke-linecap:butt;stroke-linejoin:miter;stroke:rgb(0%,0%,0%);stroke-opacity:1;stroke-miterlimit:4;" d="M 1319.375 3381.554688 L 1604.375 3562.335938 L 1735.625 3271.554688 C 2168.046875 3480.851563 2478.75 3415.617188 2667.851563 3075.734375 L 2905.46875 3210.851563 L 3068.75 2840.851563 C 2813.671875 2784.210938 2821.796875 2897.0625 2717.734375 2823.546875 C 2721.757813 2779.40625 2722.539063 2736.007813 2715.9375 2691.867188 C 3205.429688 2528.742188 3499.882813 2469.484375 3958.4375 2553.15625 C 5154.6875 2753.15625 3295.742188 131.164063 2457.890625 434.914063 C 2115.273438 613.898438 2244.765625 907.609375 1965.15625 1217.882813 C 1937.265625 1245.148438 1933.007813 1171.125 1866.835938 1110.617188 C 2087.070313 940.734375 1841.992188 768.820313 1671.71875 946.515625 C 1610.195313 913.742188 1535.507813 886.90625 1456.5625 872.492188 C 1557.773438 807.765625 1601.953125 715.265625 1558.359375 580.851563 C 1804.960938 352.101563 1570.820313 11.242188 1278.476563 1.632813 C 1479.335938 98.273438 1504.257813 303.3125 1401.015625 405.734375 C 818.359375 311.515625 621.679688 829.445313 1254.804688 779.679688 C 1216.445313 800.382813 1186.328125 824.953125 1167.304688 849.484375 C 939.609375 845.421875 747.03125 871.398438 602.382813 961.867188 C 267.265625 741.242188 0 917.179688 334.921875 1200.34375 C 131.601563 1388.390625 238.789063 1890.1875 490.820313 2113.898438 C 41.757813 2213.351563 350.859375 2595.460938 720.507813 2462.921875 C 814.296875 2631.710938 947.1875 2782.84375 1091.171875 2916.828125 L 1012.65625 3400.382813 Z M 1319.375 3381.554688 " transform="matrix(0.1,0,0,-0.1,0,356.3)"/>
</g>
<path style="fill:none;stroke-width:2;stroke-linecap:butt;stroke-linejoin:miter;stroke:rgb(0%,0%,0%);stroke-opacity:1;stroke-miterlimit:4;" d="M 4162.5 2364.601563 C 4350.351563 2189.015625 4124.804688 1649.171875 3658.75 1158.78125 C 3192.695313 668.429688 2662.578125 413.3125 2474.726563 588.9375 C 2286.875 764.523438 2512.382813 1304.40625 2978.476563 1794.757813 C 3444.53125 2285.109375 3974.648438 2540.226563 4162.5 2364.601563 Z M 4162.5 2364.601563 " transform="matrix(0.1,0,0,-0.1,0,356.3)"/>
<path style="fill:none;stroke-width:2;stroke-linecap:butt;stroke-linejoin:miter;stroke:rgb(0%,0%,0%);stroke-opacity:1;stroke-miterlimit:4;" d="M 1261.40625 545.539063 C 1357.734375 534.523438 1368.75 448.039063 1229.570313 449.835938 C 887.148438 481.671875 903.828125 704.054688 1085.46875 743.46875 C 1431.601563 780.851563 1796.679688 336.28125 1456.679688 83.390625 C 1441.015625 74.640625 1437.265625 77.257813 1446.601563 89.054688 C 1631.210938 297.882813 1382.578125 669.054688 1170.195313 652.882813 C 1097.382813 648.273438 1086.523438 565.226563 1261.40625 545.539063 Z M 1261.40625 545.539063 " transform="matrix(0.1,0,0,-0.1,0,356.3)"/>
<path style="fill:none;stroke-width:2;stroke-linecap:butt;stroke-linejoin:miter;stroke:rgb(0%,0%,0%);stroke-opacity:1;stroke-miterlimit:4;" d="M 1371.484375 750.03125 C 1293.554688 785.460938 1402.421875 821.632813 1468.320313 790.851563 C 1515.742188 767.53125 1533.359375 709.5625 1525.15625 640.851563 C 1513.59375 582.882813 1496.171875 693.3125 1371.484375 750.03125 Z M 1371.484375 750.03125 " transform="matrix(0.1,0,0,-0.1,0,356.3)"/>
<path style="fill:none;stroke-width:2;stroke-linecap:butt;stroke-linejoin:miter;stroke:rgb(0%,0%,0%);stroke-opacity:1;stroke-miterlimit:4;" d="M 1837.070313 1035.773438 C 1865.46875 1035.773438 1888.476563 1013.703125 1888.476563 986.4375 C 1888.476563 959.210938 1865.46875 937.101563 1837.070313 937.101563 C 1808.671875 937.101563 1785.664063 959.210938 1785.664063 986.4375 C 1785.664063 1013.703125 1808.671875 1035.773438 1837.070313 1035.773438 Z M 1837.070313 1035.773438 " transform="matrix(0.1,0,0,-0.1,0,356.3)"/>
<path style="fill:none;stroke-width:2;stroke-linecap:butt;stroke-linejoin:miter;stroke:rgb(0%,0%,0%);stroke-opacity:1;stroke-miterlimit:4;" d="M 1489.257813 1295.460938 C 1480.078125 1271.242188 1515.9375 1252.804688 1533.125 1277.375 C 1555.703125 1309.757813 1551.40625 1323.742188 1587.265625 1341.789063 C 1613.398438 1354.953125 1619.296875 1389.328125 1572.1875 1378.117188 C 1516.40625 1364.875 1504.296875 1335.226563 1489.257813 1295.460938 Z M 1489.257813 1295.460938 " transform="matrix(0.1,0,0,-0.1,0,356.3)"/>
<path style="fill:none;stroke-width:2;stroke-linecap:butt;stroke-linejoin:miter;stroke:rgb(0%,0%,0%);stroke-opacity:1;stroke-miterlimit:4;" d="M 2700.195313 3049.5625 C 2752.96875 3068.585938 2808.320313 3118.625 2868.359375 3129.523438 C 2898.4375 3044.601563 2934.960938 2960.304688 2987.304688 2877.335938 C 2914.140625 2868.15625 2858.046875 2888.78125 2816.328125 2934.601563 C 2801.210938 2957.140625 2793.515625 2953.273438 2789.804688 2927.6875 C 2784.53125 2891.515625 2762.96875 2884.09375 2737.851563 2880.617188 C 2737.578125 2945.148438 2723.59375 3000.460938 2700.195313 3049.5625 Z M 2700.195313 3049.5625 " transform="matrix(0.1,0,0,-0.1,0,356.3)"/>
<path style="fill:none;stroke-width:2;stroke-linecap:butt;stroke-linejoin:miter;stroke:rgb(0%,0%,0%);stroke-opacity:1;stroke-miterlimit:4;" d="M 2104.023438 2980.890625 C 2086.445313 2956.789063 2113.671875 2936.359375 2135.9375 2955.851563 C 2270.507813 3144.445313 2371.914063 3127.296875 2373.984375 2920.65625 C 2289.296875 2937.0625 2229.648438 2780.421875 2300.117188 2745.34375 C 2329.101563 2734.289063 2333.476563 2766.476563 2323.28125 2772.101563 C 2296.640625 2788.976563 2300.390625 2825.65625 2337.5 2884.132813 C 2348.515625 2902.375 2385.742188 2886.4375 2343.203125 2809.523438 C 2323.867188 2787.53125 2340.78125 2767.960938 2363.476563 2785.578125 C 2392.34375 2804.953125 2402.304688 2845.851563 2402.226563 2890.382813 C 2439.882813 2860.460938 2475.898438 2867.765625 2512.578125 2912.296875 C 2524.179688 2926.710938 2507.304688 2949.171875 2490.195313 2941.515625 C 2471.09375 2929.171875 2422.96875 2856.554688 2417.070313 2921.203125 C 2423.007813 3246.476563 2293.164063 3189.601563 2104.023438 2980.890625 Z M 2104.023438 2980.890625 " transform="matrix(0.1,0,0,-0.1,0,356.3)"/>
<path style="fill:none;stroke-width:2;stroke-linecap:butt;stroke-linejoin:miter;stroke:rgb(0%,0%,0%);stroke-opacity:1;stroke-miterlimit:4;" d="M 2489.414063 2745.304688 C 2473.164063 2963.078125 2693.632813 2813.15625 2498.789063 2737.6875 C 2492.421875 2736.828125 2490.46875 2736.28125 2489.414063 2745.304688 Z M 2489.414063 2745.304688 " transform="matrix(0.1,0,0,-0.1,0,356.3)"/>
<path style="fill:none;stroke-width:2;stroke-linecap:butt;stroke-linejoin:miter;stroke:rgb(0%,0%,0%);stroke-opacity:1;stroke-miterlimit:4;" d="M 2516.171875 2765.03125 C 2496.953125 2860.460938 2590.078125 2815.773438 2520.195313 2762.53125 C 2517.8125 2761.515625 2517.109375 2761.085938 2516.171875 2765.03125 Z M 2516.171875 2765.03125 " transform="matrix(0.1,0,0,-0.1,0,356.3)"/>
<path style="fill-rule:evenodd;fill:rgb(78.90625%,29.417419%,57.617188%);fill-opacity:1;stroke-width:2.16;stroke-linecap:butt;stroke-linejoin:miter;stroke:rgb(78.90625%,29.417419%,57.617188%);stroke-opacity:1;stroke-miterlimit:4;" d="M 4450.078125 1247.257813 L 4198.789063 1247.257813 L 4225.3125 1324.914063 C 4237.734375 1361.203125 4242.382813 1384.445313 4239.414063 1394.40625 C 4236.445313 1404.367188 4227.34375 1409.210938 4212.1875 1409.210938 C 4195.976563 1409.210938 4181.40625 1402.53125 4168.476563 1389.09375 C 4155.585938 1375.8125 4144.453125 1355.460938 4135.15625 1328.234375 C 4123.242188 1293.273438 4118.789063 1266.710938 4122.148438 1249.015625 C 4125.117188 1231.28125 4143.554688 1210.03125 4176.835938 1184.875 C 4272.695313 1112.726563 4328.203125 1053.664063 4343.828125 1007.414063 C 4359.414063 961.164063 4349.492188 886.59375 4314.375 783.703125 C 4288.828125 708.898438 4261.25 653.820313 4231.796875 618.390625 C 4202.382813 582.960938 4158.632813 553.15625 4100.859375 529.210938 C 4042.890625 505.34375 3981.015625 493.195313 3914.960938 493.195313 C 3842.539063 493.195313 3785.429688 507.101563 3743.710938 534.796875 C 3701.835938 562.453125 3680.273438 597.609375 3679.0625 640.34375 C 3677.890625 683.234375 3690.703125 743.859375 3717.617188 822.648438 L 3741.015625 891.242188 L 3992.304688 891.242188 L 3948.710938 763.585938 C 3935.234375 724.171875 3930.15625 698.976563 3933.320313 687.6875 C 3936.796875 676.632813 3947.34375 670.851563 3965.3125 670.851563 C 3983.320313 670.851563 3999.101563 677.921875 4012.8125 692.335938 C 4026.40625 706.476563 4038.085938 727.726563 4047.65625 755.8125 C 4068.75 817.570313 4074.21875 858.039063 4064.0625 877.0625 C 4053.4375 896.085938 4021.875 927.765625 3969.921875 972.179688 C 3917.96875 1017.375 3884.53125 1049.875 3869.53125 1070.226563 C 3854.765625 1090.578125 3846.132813 1118.703125 3844.101563 1154.5625 C 3841.875 1190.382813 3850.507813 1236.203125 3869.53125 1291.945313 C 3896.953125 1372.257813 3927.148438 1431.125 3960.273438 1468.3125 C 3993.164063 1505.460938 4035.976563 1534.445313 4088.554688 1555.460938 C 4141.09375 1576.28125 4199.570313 1586.90625 4263.867188 1586.90625 C 4334.335938 1586.90625 4390.3125 1575.382813 4431.914063 1552.609375 C 4473.632813 1529.601563 4496.523438 1500.8125 4500.820313 1465.851563 C 4504.960938 1431.125 4492.695313 1372.0625 4464.21875 1288.625 Z M 5270.390625 1564.757813 L 4911.992188 515.304688 L 4674.765625 515.304688 L 4696.796875 992.375 L 4533.90625 515.304688 L 4307.65625 515.304688 L 4666.054688 1564.757813 L 4892.304688 1564.757813 L 4882.734375 1092.101563 L 5044.140625 1564.757813 Z M 5787.578125 950.304688 C 5751.5625 844.71875 5723.671875 770.226563 5703.867188 726.398438 C 5683.789063 682.375 5654.765625 642.335938 5616.484375 606.046875 C 5578.164063 569.71875 5533.554688 541.867188 5482.8125 522.375 C 5432.03125 502.921875 5377.148438 493.195313 5318.554688 493.195313 C 5262.8125 493.195313 5215.9375 502.492188 5177.890625 520.851563 C 5139.609375 539.210938 5113.4375 566.632813 5098.984375 603.351563 C 5084.53125 640.109375 5082.1875 680.148438 5091.640625 723.3125 C 5101.40625 766.671875 5124.648438 842.335938 5161.523438 950.304688 L 5222.773438 1129.757813 C 5258.828125 1235.304688 5286.71875 1309.875 5306.796875 1353.898438 C 5326.5625 1397.726563 5355.625 1437.765625 5394.140625 1474.054688 C 5432.421875 1510.34375 5476.835938 1538.234375 5527.8125 1557.6875 C 5578.554688 1577.101563 5633.242188 1586.90625 5692.03125 1586.90625 C 5747.773438 1586.90625 5794.648438 1577.609375 5832.695313 1559.210938 C 5870.742188 1540.851563 5897.148438 1513.390625 5911.601563 1476.710938 C 5926.054688 1439.992188 5928.398438 1399.914063 5918.710938 1356.789063 C 5909.179688 1313.351563 5885.820313 1237.960938 5848.867188 1129.757813 Z M 5634.726563 1295.03125 C 5651.445313 1343.9375 5659.453125 1375.148438 5658.671875 1388.859375 C 5658.007813 1402.375 5649.375 1409.210938 5632.695313 1409.210938 C 5618.4375 1409.210938 5605.78125 1403.703125 5594.53125 1392.609375 C 5583.164063 1381.789063 5568.320313 1349.210938 5549.804688 1295.03125 L 5382.5 805.148438 C 5361.679688 744.09375 5351.445313 706.476563 5351.445313 692.335938 C 5351.367188 677.921875 5360.585938 670.851563 5378.554688 670.851563 C 5396.992188 670.851563 5411.445313 679.054688 5422.265625 695.421875 C 5433.007813 712.023438 5448.945313 750.929688 5470.078125 812.921875 Z M 6098.359375 1564.757813 L 6289.960938 1564.757813 C 6417.65625 1564.757813 6502.460938 1559.914063 6544.257813 1549.953125 C 6586.09375 1539.992188 6614.257813 1514.523438 6628.867188 1473.78125 C 6643.4375 1432.882813 6635.46875 1367.84375 6604.882813 1278.234375 C 6576.992188 1196.59375 6548.164063 1141.710938 6518.359375 1113.625 C 6488.789063 1085.460938 6443.359375 1068.703125 6382.1875 1063.15625 C 6431.132813 1049.640625 6461.25 1031.710938 6471.953125 1009.171875 C 6482.539063 986.828125 6487.148438 966.242188 6485.117188 947.453125 C 6483.28125 928.625 6467.8125 876.867188 6438.867188 792.101563 L 6344.335938 515.304688 L 6093.085938 515.304688 L 6212.148438 864.015625 C 6231.367188 920.226563 6238.59375 954.953125 6234.453125 968.429688 C 6230.195313 981.710938 6209.492188 988.585938 6172.421875 988.585938 L 6010.78125 515.304688 L 5740 515.304688 Z M 6307.890625 1385.304688 L 6228.164063 1151.90625 C 6258.4375 1151.90625 6281.171875 1156.085938 6296.328125 1164.484375 C 6311.484375 1172.921875 6327.03125 1200.34375 6342.8125 1246.59375 L 6362.460938 1304.132813 C 6373.867188 1337.53125 6375.351563 1359.210938 6367.03125 1369.601563 C 6358.75 1380.03125 6339.0625 1385.304688 6307.890625 1385.304688 Z M 7352.5 1564.757813 L 7280.820313 1354.796875 L 7120.15625 1354.796875 L 6833.476563 515.304688 L 6562.929688 515.304688 L 6849.609375 1354.796875 L 6689.375 1354.796875 L 6761.09375 1564.757813 Z M 7352.5 1564.757813 " transform="matrix(0.1,0,0,-0.1,0,356.3)"/>
<path style="fill:none;stroke-width:2.16;stroke-linecap:butt;stroke-linejoin:miter;stroke:rgb(10.594177%,9.812927%,9.423828%);stroke-opacity:1;stroke-miterlimit:4;" d="M 4541.5625 1569.484375 C 4584.882813 1524.757813 4555.273438 1654.445313 4679.140625 1650.695313 L 4871.757813 1650.695313 C 4955.507813 1649.09375 4940.9375 1612.960938 4963.984375 1612.648438 C 4985.78125 1613.742188 4970.976563 1650.734375 5041.5625 1649.875 L 5257.34375 1649.875 C 5376.210938 1641.90625 5335.78125 1556.671875 5377.1875 1569.367188 C 5494.101563 1704.523438 5902.695313 1704.5625 5974.726563 1536.828125 C 6008.984375 1493.9375 5975.664063 1638.742188 6094.023438 1650.695313 C 6320.898438 1644.992188 6580.429688 1679.5625 6641.445313 1589.757813 C 6677.460938 1556.007813 6667.929688 1643.507813 6762.34375 1652.140625 L 7347.421875 1649.210938 C 7419.257813 1651.28125 7451.71875 1589.445313 7430.664063 1520.1875 L 7363.515625 1322.375 C 7350.625 1283.351563 7328.203125 1260.460938 7293.085938 1259.132813 L 7181.875 1258.546875 L 6946.09375 548.429688 C 6924.84375 469.132813 6891.835938 424.40625 6841.640625 430.148438 L 6554.335938 428.78125 C 6460.585938 450.1875 6475.117188 520.695313 6500.585938 600.304688 L 6713.828125 1238.78125 C 6721.835938 1264.796875 6696.875 1271.085938 6690.3125 1247.53125 C 6667.96875 1168.390625 6641.289063 1092.492188 6576.25 1044.484375 C 6564.882813 1033.898438 6562.5 1021.203125 6573.359375 1005.304688 C 6613.789063 939.210938 6502.070313 687.0625 6446.679688 503.390625 C 6431.640625 452.765625 6373.59375 429.289063 6325.664063 429.40625 L 5748.828125 430.890625 C 5652.460938 438.664063 5675.546875 525.8125 5624.804688 497.648438 C 5513.359375 396.085938 5192.460938 337.6875 5053.515625 517.84375 C 5005.976563 589.015625 5034.179688 445.148438 4947.773438 427.570313 L 4670.46875 422.101563 C 4633.125 424.914063 4630.664063 466.984375 4605.429688 450.929688 C 4595.507813 444.640625 4587.773438 427.453125 4541.914063 423.9375 L 4311.289063 424.40625 C 4223.554688 439.210938 4251.679688 502.335938 4214.257813 485.304688 C 4030.898438 337.570313 3495.273438 383.15625 3608.789063 740.148438 C 3680.195313 980.851563 3645.78125 987.296875 3805.15625 987.140625 C 3872.1875 982.570313 3677.96875 1046.554688 3784.648438 1337.53125 C 3884.6875 1728.625 4423.984375 1751.632813 4541.5625 1569.484375 Z M 4541.5625 1569.484375 " transform="matrix(0.1,0,0,-0.1,0,356.3)"/>
<path style="fill:none;stroke-width:2;stroke-linecap:butt;stroke-linejoin:miter;stroke:rgb(0%,0%,0%);stroke-opacity:1;stroke-miterlimit:4;" d="M 4361.992188 1149.132813 C 4365.234375 1150.578125 4434.414063 1149.71875 4434.414063 1149.71875 L 4411.953125 1091.671875 C 4400.273438 1112.804688 4383.320313 1131.867188 4361.992188 1149.132813 Z M 4361.992188 1149.132813 " transform="matrix(0.1,0,0,-0.1,0,356.3)"/>
<g clip-path="url(#clip2)" clip-rule="nonzero">
<path style=" stroke:none;fill-rule:evenodd;fill:rgb(10.594177%,9.812927%,9.423828%);fill-opacity:1;" d="M 410.265625 190.785156 C 441.855469 138.769531 448.910156 92.113281 395.84375 100.984375 C 349.988281 109.351563 320.542969 103.425781 271.59375 87.113281 C 272.253906 82.699219 272.175781 78.359375 271.773438 73.945313 C 282.179688 66.59375 281.367188 77.878906 306.875 72.214844 L 290.546875 35.214844 L 266.785156 48.726563 C 247.875 14.738281 216.804688 8.214844 173.5625 29.144531 L 160.4375 0.0664063 L 131.9375 18.144531 L 101.265625 16.261719 L 109.117188 64.617188 C 94.71875 78.015625 81.429688 93.128906 72.050781 110.007813 C 35.085938 96.753906 4.175781 134.964844 49.082031 144.910156 C 23.878906 167.28125 13.160156 217.460938 33.492188 236.265625 C 0 264.582031 26.726563 282.175781 60.238281 260.113281 C 74.703125 269.160156 93.960938 271.757813 116.730469 271.351563 C 118.632813 273.804688 121.644531 276.261719 125.480469 278.332031 C 62.167969 273.355469 81.835938 325.148438 140.101563 315.726563 C 150.425781 325.96875 147.933594 346.472656 127.847656 356.136719 C 157.082031 355.175781 180.496094 321.089844 155.835938 298.214844 C 160.195313 284.773438 155.777344 275.523438 145.65625 269.050781 C 153.550781 267.609375 161.019531 264.925781 167.171875 261.648438 C 184.199219 279.417969 208.707031 262.226563 186.683594 245.238281 C 193.300781 239.1875 193.726563 231.785156 196.515625 234.511719 C 224.476563 265.539063 211.527344 294.910156 245.789063 312.808594 C 280.976563 325.5625 334.179688 286.714844 375.195313 238.839844 C 375.199219 235.867188 375.597656 232.46875 376.582031 228.589844 C 373.171875 232.546875 369.601563 236.503906 365.875 240.421875 C 319.277344 289.445313 266.253906 314.964844 247.472656 297.40625 C 228.691406 279.847656 251.246094 225.851563 297.847656 176.824219 C 344.445313 127.800781 397.464844 102.277344 416.25 119.839844 C 429.117188 131.867188 422.582031 161.003906 402.203125 193.921875 C 404.8125 192.652344 407.519531 191.609375 410.265625 190.785156 Z M 375.683594 112.121094 C 387.085938 111.554688 381.671875 112.1875 375.75 113.878906 C 309.992188 132.621094 232.890625 221.445313 231.953125 277.082031 C 222.640625 244.925781 200.0625 217.289063 170.714844 195.386719 C 167.109375 192.777344 162.371094 197.117188 167.757813 201.632813 C 236.589844 267.414063 52.753906 286.675781 74.613281 244.453125 C 75.523438 242.796875 73.683594 242.761719 72.902344 243.621094 C 27.125 286.671875 17.222656 242.878906 62.597656 221.679688 C 65.535156 220.226563 64.117188 218.210938 60.359375 218.546875 C 50.191406 219.84375 42.765625 233.835938 37.070313 226.234375 C 18.054688 202.074219 37.816406 146.585938 69 145.316406 C 71.800781 145.003906 73.664063 143.179688 69.953125 142.855469 C 8.566406 141.15625 51.054688 95.089844 80.320313 120.320313 C 83.507813 122.246094 86.023438 119.824219 82.546875 116.941406 C 69.152344 111.871094 99.875 75.828125 108.871094 73.570313 C 115.714844 71.851563 111.859375 81.492188 117.414063 84.285156 C 138.304688 92.035156 145.0625 67.234375 154.8125 41.257813 C 156.242188 36.027344 152.3125 34.550781 151.230469 38.242188 C 142.28125 59.535156 134.085938 85.964844 120.328125 74.335938 C 116.179688 57.96875 114.121094 41.34375 114.191406 24.503906 C 148.113281 24.855469 126.277344 29.054688 155.996094 11.214844 L 169.441406 32.691406 C 170.980469 34.738281 172.957031 35.164063 175.460938 33.632813 C 215.847656 10.617188 272.328125 27.882813 266.125 88.335938 C 302.640625 107.105469 339.164063 113.953125 375.683594 112.121094 Z M 298.730469 68.566406 C 291.414063 69.484375 285.804688 67.421875 281.632813 62.839844 C 280.121094 60.585938 279.351563 60.972656 278.980469 63.53125 C 278.453125 67.148438 276.296875 67.890625 273.785156 68.238281 C 273.757813 61.785156 272.359375 56.253906 270.019531 51.34375 C 275.296875 49.441406 280.832031 44.4375 286.835938 43.347656 C 289.84375 51.839844 293.496094 60.269531 298.730469 68.566406 Z M 183.707031 252.722656 C 186.546875 252.722656 188.847656 254.933594 188.847656 257.65625 C 188.847656 260.378906 186.546875 262.589844 183.707031 262.589844 C 180.867188 262.589844 178.566406 260.378906 178.566406 257.65625 C 178.566406 254.933594 180.867188 252.722656 183.707031 252.722656 Z M 137.148438 281.296875 C 129.355469 277.753906 140.242188 274.136719 146.832031 277.214844 C 151.574219 279.546875 153.335938 285.34375 152.515625 292.214844 C 151.359375 298.011719 149.617188 286.96875 137.148438 281.296875 Z M 108.546875 281.953125 C 143.160156 278.214844 179.667969 322.671875 145.667969 347.960938 C 144.101563 348.835938 143.726563 348.574219 144.660156 347.394531 C 163.121094 326.511719 138.257813 289.394531 117.019531 291.011719 C 109.738281 291.472656 108.652344 299.777344 126.140625 301.746094 C 135.773438 302.847656 136.875 311.496094 122.957031 311.316406 C 88.714844 308.132813 90.382813 285.894531 108.546875 281.953125 Z M 108.546875 281.953125 "/>
</g>
<g clip-path="url(#clip3)" clip-rule="nonzero">
<path style="fill:none;stroke-width:2.16;stroke-linecap:butt;stroke-linejoin:miter;stroke:rgb(10.594177%,9.812927%,9.423828%);stroke-opacity:1;stroke-miterlimit:4;" d="M 4102.65625 1655.148438 C 4418.554688 2175.304688 4489.101563 2641.867188 3958.4375 2553.15625 C 3499.882813 2469.484375 3205.429688 2528.742188 2715.9375 2691.867188 C 2722.539063 2736.007813 2721.757813 2779.40625 2717.734375 2823.546875 C 2821.796875 2897.0625 2813.671875 2784.210938 3068.75 2840.851563 L 2905.46875 3210.851563 L 2667.851563 3075.734375 C 2478.75 3415.617188 2168.046875 3480.851563 1735.625 3271.554688 L 1604.375 3562.335938 L 1319.375 3381.554688 L 1012.65625 3400.382813 L 1091.171875 2916.828125 C 947.1875 2782.84375 814.296875 2631.710938 720.507813 2462.921875 C 350.859375 2595.460938 41.757813 2213.351563 490.820313 2113.898438 C 238.789063 1890.1875 131.601563 1388.390625 334.921875 1200.34375 C 0 917.179688 267.265625 741.242188 602.382813 961.867188 C 747.03125 871.398438 939.609375 845.421875 1167.304688 849.484375 C 1186.328125 824.953125 1216.445313 800.382813 1254.804688 779.679688 C 621.679688 829.445313 818.359375 311.515625 1401.015625 405.734375 C 1504.257813 303.3125 1479.335938 98.273438 1278.476563 1.632813 C 1570.820313 11.242188 1804.960938 352.101563 1558.359375 580.851563 C 1601.953125 715.265625 1557.773438 807.765625 1456.5625 872.492188 C 1535.507813 886.90625 1610.195313 913.742188 1671.71875 946.515625 C 1841.992188 768.820313 2087.070313 940.734375 1866.835938 1110.617188 C 1933.007813 1171.125 1937.265625 1245.148438 1965.15625 1217.882813 C 2244.765625 907.609375 2115.273438 613.898438 2457.890625 434.914063 C 2809.765625 307.375 3341.796875 695.851563 3751.953125 1174.601563 C 3751.992188 1204.328125 3755.976563 1238.3125 3765.820313 1277.101563 C 3731.71875 1237.53125 3696.015625 1197.960938 3658.75 1158.78125 C 3192.773438 668.546875 2662.539063 413.351563 2474.726563 588.9375 C 2286.914063 764.523438 2512.460938 1304.484375 2978.476563 1794.757813 C 3444.453125 2284.992188 3974.648438 2540.226563 4162.5 2364.601563 C 4291.171875 2244.328125 4225.820313 1952.960938 4022.03125 1623.78125 C 4048.125 1636.476563 4075.195313 1646.90625 4102.65625 1655.148438 Z M 3756.835938 2441.789063 C 3870.859375 2447.453125 3816.71875 2441.125 3757.5 2424.210938 C 3099.921875 2236.789063 2328.90625 1348.546875 2319.53125 792.179688 C 2226.40625 1113.742188 2000.625 1390.109375 1707.148438 1609.132813 C 1671.09375 1635.226563 1623.710938 1591.828125 1677.578125 1546.671875 C 2365.898438 888.859375 527.539063 696.242188 746.132813 1118.46875 C 755.234375 1135.03125 736.835938 1135.382813 729.023438 1126.789063 C 271.25 696.28125 172.226563 1134.210938 625.976563 1346.203125 C 655.351563 1360.734375 641.171875 1380.890625 603.59375 1377.53125 C 501.914063 1364.5625 427.65625 1224.640625 370.703125 1300.65625 C 180.546875 1542.257813 378.164063 2097.140625 690 2109.835938 C 718.007813 2112.960938 736.640625 2131.203125 699.53125 2134.445313 C 85.664063 2151.4375 510.546875 2612.101563 803.203125 2359.796875 C 835.078125 2340.539063 860.234375 2364.757813 825.46875 2393.585938 C 691.523438 2444.289063 998.75 2804.71875 1088.710938 2827.296875 C 1157.148438 2844.484375 1118.59375 2748.078125 1174.140625 2720.148438 C 1383.046875 2642.648438 1450.625 2890.65625 1548.125 3150.421875 C 1562.421875 3202.726563 1523.125 3217.492188 1512.304688 3180.578125 C 1422.8125 2967.648438 1340.859375 2703.351563 1203.28125 2819.640625 C 1161.796875 2983.3125 1141.210938 3149.5625 1141.914063 3317.960938 C 1481.132813 3314.445313 1262.773438 3272.453125 1559.960938 3450.851563 L 1694.414063 3236.085938 C 1709.804688 3215.617188 1729.570313 3211.359375 1754.609375 3226.671875 C 2158.476563 3456.828125 2723.28125 3284.171875 2661.25 2679.640625 C 3026.40625 2491.945313 3391.640625 2423.46875 3756.835938 2441.789063 Z M 2987.304688 2877.335938 C 2914.140625 2868.15625 2858.046875 2888.78125 2816.328125 2934.601563 C 2801.210938 2957.140625 2793.515625 2953.273438 2789.804688 2927.6875 C 2784.53125 2891.515625 2762.96875 2884.09375 2737.851563 2880.617188 C 2737.578125 2945.148438 2723.59375 3000.460938 2700.195313 3049.5625 C 2752.96875 3068.585938 2808.320313 3118.625 2868.359375 3129.523438 C 2898.4375 3044.601563 2934.960938 2960.304688 2987.304688 2877.335938 Z M 1837.070313 1035.773438 C 1865.46875 1035.773438 1888.476563 1013.664063 1888.476563 986.4375 C 1888.476563 959.210938 1865.46875 937.101563 1837.070313 937.101563 C 1808.671875 937.101563 1785.664063 959.210938 1785.664063 986.4375 C 1785.664063 1013.664063 1808.671875 1035.773438 1837.070313 1035.773438 Z M 1371.484375 750.03125 C 1293.554688 785.460938 1402.421875 821.632813 1468.320313 790.851563 C 1515.742188 767.53125 1533.359375 709.5625 1525.15625 640.851563 C 1513.59375 582.882813 1496.171875 693.3125 1371.484375 750.03125 Z M 1085.46875 743.46875 C 1431.601563 780.851563 1796.679688 336.28125 1456.679688 83.390625 C 1441.015625 74.640625 1437.265625 77.257813 1446.601563 89.054688 C 1631.210938 297.882813 1382.578125 669.054688 1170.195313 652.882813 C 1097.382813 648.273438 1086.523438 565.226563 1261.40625 545.539063 C 1357.734375 534.523438 1368.75 448.039063 1229.570313 449.835938 C 887.148438 481.671875 903.828125 704.054688 1085.46875 743.46875 Z M 1085.46875 743.46875 " transform="matrix(0.1,0,0,-0.1,0,356.3)"/>
</g>
<path style="fill-rule:evenodd;fill:rgb(10.594177%,9.812927%,9.423828%);fill-opacity:1;stroke-width:2.16;stroke-linecap:butt;stroke-linejoin:miter;stroke:rgb(10.594177%,9.812927%,9.423828%);stroke-opacity:1;stroke-miterlimit:4;" d="M 4541.5625 1569.484375 C 4476.210938 1670.695313 4280.703125 1708.585938 4102.65625 1655.148438 C 4074.414063 1608.625 4044.179688 1561.671875 4012.265625 1514.601563 C 4034.84375 1530.578125 4060.3125 1544.171875 4088.554688 1555.460938 C 4141.09375 1576.28125 4199.570313 1586.90625 4263.867188 1586.90625 C 4334.335938 1586.90625 4390.3125 1575.382813 4431.914063 1552.609375 C 4473.632813 1529.601563 4496.523438 1500.8125 4500.820313 1465.851563 C 4504.960938 1431.125 4492.695313 1372.0625 4464.21875 1288.625 L 4450.078125 1247.257813 L 4198.789063 1247.257813 L 4225.3125 1324.914063 C 4237.734375 1361.203125 4242.382813 1384.445313 4239.414063 1394.40625 C 4236.445313 1404.367188 4227.34375 1409.210938 4212.1875 1409.210938 C 4195.976563 1409.210938 4181.40625 1402.53125 4168.476563 1389.09375 C 4155.585938 1375.8125 4144.453125 1355.460938 4135.15625 1328.234375 C 4123.242188 1293.273438 4118.789063 1266.710938 4122.148438 1249.015625 C 4125.117188 1231.28125 4143.554688 1210.03125 4176.835938 1184.875 C 4272.695313 1112.726563 4328.203125 1053.664063 4343.828125 1007.414063 C 4359.414063 961.164063 4349.492188 886.59375 4314.375 783.703125 C 4288.828125 708.898438 4261.25 653.820313 4231.796875 618.390625 C 4202.382813 582.960938 4158.632813 553.15625 4100.859375 529.210938 C 4042.890625 505.34375 3981.015625 493.195313 3914.960938 493.195313 C 3842.539063 493.195313 3785.429688 507.101563 3743.710938 534.796875 C 3701.835938 562.453125 3680.273438 597.609375 3679.0625 640.34375 C 3677.890625 683.234375 3690.703125 743.859375 3717.617188 822.648438 L 3741.015625 891.242188 L 3992.304688 891.242188 L 3948.710938 763.585938 C 3935.234375 724.171875 3930.15625 698.976563 3933.320313 687.6875 C 3936.796875 676.632813 3947.34375 670.851563 3965.3125 670.851563 C 3983.320313 670.851563 3999.101563 677.921875 4012.8125 692.335938 C 4026.40625 706.476563 4038.085938 727.726563 4047.65625 755.8125 C 4068.75 817.570313 4074.21875 858.039063 4064.0625 877.0625 C 4053.4375 896.085938 4021.875 927.765625 3969.921875 972.179688 C 3917.96875 1017.375 3884.53125 1049.875 3869.53125 1070.226563 C 3854.765625 1090.578125 3846.132813 1118.703125 3844.101563 1154.5625 C 3841.875 1190.382813 3850.507813 1236.203125 3869.53125 1291.945313 C 3875.78125 1310.265625 3882.1875 1327.453125 3888.75 1343.546875 C 3845.078125 1286.476563 3799.296875 1229.953125 3751.953125 1174.601563 C 3751.757813 1021.359375 3857.1875 983.585938 3805.15625 987.140625 C 3645.78125 987.296875 3680.195313 980.851563 3608.789063 740.148438 C 3495.273438 383.15625 4030.898438 337.570313 4214.257813 485.304688 C 4251.679688 502.335938 4223.554688 439.210938 4311.289063 424.40625 L 4541.914063 423.9375 C 4587.773438 427.453125 4595.507813 444.640625 4605.429688 450.929688 C 4630.664063 466.984375 4633.125 424.914063 4670.46875 422.101563 L 4947.773438 427.570313 C 5034.179688 445.148438 5005.976563 589.015625 5053.515625 517.84375 C 5192.460938 337.6875 5513.359375 396.085938 5624.804688 497.648438 C 5675.546875 525.8125 5652.460938 438.664063 5748.828125 430.890625 L 6325.664063 429.40625 C 6373.59375 429.289063 6431.640625 452.765625 6446.679688 503.390625 C 6502.070313 687.0625 6613.789063 939.210938 6573.359375 1005.304688 C 6562.5 1021.203125 6564.882813 1033.898438 6576.25 1044.484375 C 6641.289063 1092.492188 6667.96875 1168.390625 6690.3125 1247.53125 C 6696.875 1271.085938 6721.835938 1264.796875 6713.828125 1238.78125 L 6500.585938 600.304688 C 6475.117188 520.695313 6460.585938 450.1875 6554.335938 428.78125 L 6841.640625 430.148438 C 6891.835938 424.40625 6924.84375 469.132813 6946.09375 548.429688 L 7181.875 1258.546875 L 7293.085938 1259.132813 C 7328.203125 1260.460938 7350.625 1283.351563 7363.515625 1322.375 L 7430.664063 1520.1875 C 7451.71875 1589.445313 7419.257813 1651.28125 7347.421875 1649.210938 L 6762.34375 1652.140625 C 6667.929688 1643.507813 6677.460938 1556.007813 6641.445313 1589.757813 C 6580.429688 1679.5625 6320.898438 1644.992188 6094.023438 1650.695313 C 5975.664063 1638.742188 6008.984375 1493.9375 5974.726563 1536.828125 C 5902.695313 1704.5625 5494.101563 1704.523438 5377.1875 1569.367188 C 5335.78125 1556.671875 5376.210938 1641.90625 5257.34375 1649.875 L 5041.5625 1649.875 C 4970.976563 1650.734375 4985.78125 1613.742188 4963.984375 1612.648438 C 4940.9375 1612.960938 4955.507813 1649.09375 4871.757813 1650.695313 L 4679.140625 1650.695313 C 4555.273438 1654.445313 4584.882813 1524.757813 4541.5625 1569.484375 Z M 4307.65625 515.304688 L 4666.054688 1564.757813 L 4892.304688 1564.757813 L 4882.734375 1092.101563 L 5044.140625 1564.757813 L 5270.390625 1564.757813 L 4911.992188 515.304688 L 4674.765625 515.304688 L 4696.796875 992.375 L 4533.90625 515.304688 Z M 5222.773438 1129.757813 C 5258.828125 1235.304688 5286.71875 1309.875 5306.796875 1353.898438 C 5326.5625 1397.726563 5355.625 1437.765625 5394.140625 1474.054688 C 5432.421875 1510.34375 5476.835938 1538.234375 5527.8125 1557.6875 C 5578.554688 1577.101563 5633.242188 1586.90625 5692.03125 1586.90625 C 5747.773438 1586.90625 5794.648438 1577.609375 5832.695313 1559.210938 C 5870.742188 1540.851563 5897.148438 1513.390625 5911.601563 1476.710938 C 5926.054688 1439.992188 5928.398438 1399.914063 5918.710938 1356.789063 C 5909.179688 1313.351563 5885.820313 1237.960938 5848.867188 1129.757813 L 5787.578125 950.304688 C 5751.5625 844.71875 5723.671875 770.226563 5703.867188 726.398438 C 5683.789063 682.375 5654.765625 642.335938 5616.484375 606.046875 C 5578.164063 569.71875 5533.554688 541.867188 5482.8125 522.375 C 5432.03125 502.921875 5377.148438 493.195313 5318.554688 493.195313 C 5262.8125 493.195313 5215.9375 502.492188 5177.890625 520.851563 C 5139.609375 539.210938 5113.4375 566.632813 5098.984375 603.351563 C 5084.53125 640.109375 5082.1875 680.148438 5091.640625 723.3125 C 5101.40625 766.671875 5124.648438 842.335938 5161.523438 950.304688 Z M 6098.359375 1564.757813 L 6289.960938 1564.757813 C 6417.65625 1564.757813 6502.460938 1559.914063 6544.257813 1549.953125 C 6586.09375 1539.992188 6614.257813 1514.523438 6628.867188 1473.78125 C 6643.4375 1432.882813 6635.46875 1367.84375 6604.882813 1278.234375 C 6576.992188 1196.59375 6548.164063 1141.710938 6518.359375 1113.625 C 6488.789063 1085.460938 6443.359375 1068.703125 6382.1875 1063.15625 C 6431.132813 1049.640625 6461.25 1031.710938 6471.953125 1009.171875 C 6482.539063 986.828125 6487.148438 966.242188 6485.117188 947.453125 C 6483.28125 928.625 6467.8125 876.867188 6438.867188 792.101563 L 6344.335938 515.304688 L 6093.085938 515.304688 L 6212.148438 864.015625 C 6231.367188 920.226563 6238.59375 954.953125 6234.453125 968.429688 C 6230.195313 981.710938 6209.492188 988.585938 6172.421875 988.585938 L 6010.78125 515.304688 L 5740 515.304688 Z M 6689.375 1354.796875 L 6761.09375 1564.757813 L 7352.5 1564.757813 L 7280.820313 1354.796875 L 7120.15625 1354.796875 L 6833.476563 515.304688 L 6562.929688 515.304688 L 6849.609375 1354.796875 Z M 4361.992188 1149.132813 C 4365.234375 1150.578125 4434.414063 1149.71875 4434.414063 1149.71875 L 4411.953125 1091.671875 C 4400.273438 1112.804688 4383.320313 1131.867188 4361.992188 1149.132813 Z M 4361.992188 1149.132813 " transform="matrix(0.1,0,0,-0.1,0,356.3)"/>
<path style="fill-rule:evenodd;fill:rgb(10.594177%,9.812927%,9.423828%);fill-opacity:1;stroke-width:2.16;stroke-linecap:butt;stroke-linejoin:miter;stroke:rgb(10.594177%,9.812927%,9.423828%);stroke-opacity:1;stroke-miterlimit:4;" d="M 5549.804688 1295.03125 L 5382.5 805.148438 C 5361.679688 744.09375 5351.445313 706.476563 5351.445313 692.335938 C 5351.367188 677.921875 5360.585938 670.851563 5378.554688 670.851563 C 5396.992188 670.851563 5411.445313 679.054688 5422.265625 695.421875 C 5433.007813 712.023438 5448.945313 750.929688 5470.078125 812.921875 L 5634.726563 1295.03125 C 5651.445313 1343.9375 5659.453125 1375.148438 5658.671875 1388.859375 C 5658.007813 1402.375 5649.375 1409.210938 5632.695313 1409.210938 C 5618.4375 1409.210938 5605.78125 1403.703125 5594.53125 1392.609375 C 5583.164063 1381.789063 5568.320313 1349.210938 5549.804688 1295.03125 Z M 5549.804688 1295.03125 " transform="matrix(0.1,0,0,-0.1,0,356.3)"/>
<path style="fill-rule:evenodd;fill:rgb(10.594177%,9.812927%,9.423828%);fill-opacity:1;stroke-width:2.16;stroke-linecap:butt;stroke-linejoin:miter;stroke:rgb(10.594177%,9.812927%,9.423828%);stroke-opacity:1;stroke-miterlimit:4;" d="M 6307.890625 1385.304688 L 6228.164063 1151.90625 C 6258.4375 1151.90625 6281.171875 1156.085938 6296.328125 1164.484375 C 6311.484375 1172.921875 6327.03125 1200.34375 6342.8125 1246.59375 L 6362.460938 1304.132813 C 6373.867188 1337.53125 6375.351563 1359.210938 6367.03125 1369.601563 C 6358.75 1380.03125 6339.0625 1385.304688 6307.890625 1385.304688 Z M 6307.890625 1385.304688 " transform="matrix(0.1,0,0,-0.1,0,356.3)"/>
<path style="fill-rule:evenodd;fill:rgb(10.594177%,9.812927%,9.423828%);fill-opacity:1;stroke-width:2.16;stroke-linecap:butt;stroke-linejoin:miter;stroke:rgb(10.594177%,9.812927%,9.423828%);stroke-opacity:1;stroke-miterlimit:4;" d="M 2795.585938 922.960938 C 3182.773438 1290.03125 3515.507813 1674.367188 3756.367188 2100.890625 C 3901.289063 2141.945313 3943.554688 2222.53125 3857.8125 2201.828125 C 3379.453125 2033.664063 2636.640625 1105.109375 2679.140625 743.234375 C 2694.882813 703.546875 2680.78125 857.0625 2795.585938 922.960938 Z M 2795.585938 922.960938 " transform="matrix(0.1,0,0,-0.1,0,356.3)"/>
<path style="fill-rule:evenodd;fill:rgb(10.594177%,9.812927%,9.423828%);fill-opacity:1;stroke-width:2.16;stroke-linecap:butt;stroke-linejoin:miter;stroke:rgb(10.594177%,9.812927%,9.423828%);stroke-opacity:1;stroke-miterlimit:4;" d="M 4074.21875 1999.445313 C 3705 1839.914063 3107.5 1072.726563 3110.078125 796.671875 C 3122.8125 765.578125 3115.3125 866.710938 3207.929688 923.976563 C 3533.632813 1223.46875 3823.632813 1561.046875 4006.171875 1919.601563 C 4123.125 1958.195313 4143.398438 2019.445313 4074.21875 1999.445313 Z M 4074.21875 1999.445313 " transform="matrix(0.1,0,0,-0.1,0,356.3)"/>
<path style="fill-rule:evenodd;fill:rgb(10.594177%,9.812927%,9.423828%);fill-opacity:1;stroke-width:2.16;stroke-linecap:butt;stroke-linejoin:miter;stroke:rgb(10.594177%,9.812927%,9.423828%);stroke-opacity:1;stroke-miterlimit:4;" d="M 4022.03125 1623.78125 C 3952.148438 1510.890625 3866.015625 1393.546875 3765.820313 1277.101563 C 3755.976563 1238.3125 3751.953125 1204.289063 3751.953125 1174.601563 C 3799.296875 1229.953125 3845.078125 1286.476563 3888.75 1343.546875 C 3910.898438 1397.960938 3934.6875 1439.601563 3960.273438 1468.3125 C 3975.46875 1485.460938 3992.8125 1500.890625 4012.265625 1514.601563 C 4044.179688 1561.671875 4074.414063 1608.625 4102.65625 1655.148438 C 4075.195313 1646.90625 4048.125 1636.476563 4022.03125 1623.78125 Z M 4022.03125 1623.78125 " transform="matrix(0.1,0,0,-0.1,0,356.3)"/>
<path style="fill-rule:evenodd;fill:rgb(10.594177%,9.812927%,9.423828%);fill-opacity:1;stroke-width:2.16;stroke-linecap:butt;stroke-linejoin:miter;stroke:rgb(10.594177%,9.812927%,9.423828%);stroke-opacity:1;stroke-miterlimit:4;" d="M 3765.820313 1277.101563 C 3866.015625 1393.546875 3952.148438 1510.890625 4022.03125 1623.78125 C 3912.890625 1570.695313 3820.507813 1477.804688 3784.648438 1337.53125 C 3776.835938 1316.203125 3770.625 1296.085938 3765.820313 1277.101563 Z M 3765.820313 1277.101563 " transform="matrix(0.1,0,0,-0.1,0,356.3)"/>
<path style="fill-rule:evenodd;fill:rgb(10.594177%,9.812927%,9.423828%);fill-opacity:1;stroke-width:2.16;stroke-linecap:butt;stroke-linejoin:miter;stroke:rgb(10.594177%,9.812927%,9.423828%);stroke-opacity:1;stroke-miterlimit:4;" d="M 2417.070313 2921.203125 C 2423.007813 3246.476563 2293.164063 3189.601563 2104.023438 2980.890625 C 2086.445313 2956.789063 2113.671875 2936.359375 2135.9375 2955.851563 C 2270.507813 3144.445313 2371.914063 3127.296875 2373.984375 2920.65625 C 2289.296875 2937.0625 2229.648438 2780.421875 2300.117188 2745.34375 C 2329.101563 2734.289063 2333.476563 2766.476563 2323.28125 2772.101563 C 2296.640625 2788.976563 2300.390625 2825.65625 2337.5 2884.132813 C 2348.515625 2902.375 2385.742188 2886.4375 2343.203125 2809.523438 C 2323.867188 2787.53125 2340.78125 2767.960938 2363.476563 2785.578125 C 2392.34375 2804.953125 2402.304688 2845.851563 2402.226563 2890.382813 C 2439.882813 2860.460938 2475.898438 2867.765625 2512.578125 2912.296875 C 2524.179688 2926.710938 2507.304688 2949.171875 2490.195313 2941.515625 C 2471.09375 2929.171875 2422.96875 2856.554688 2417.070313 2921.203125 Z M 2417.070313 2921.203125 " transform="matrix(0.1,0,0,-0.1,0,356.3)"/>
<path style="fill-rule:evenodd;fill:rgb(10.594177%,9.812927%,9.423828%);fill-opacity:1;stroke-width:2.16;stroke-linecap:butt;stroke-linejoin:miter;stroke:rgb(10.594177%,9.812927%,9.423828%);stroke-opacity:1;stroke-miterlimit:4;" d="M 2498.789063 2737.6875 C 2693.632813 2813.15625 2473.164063 2963.078125 2489.414063 2745.304688 C 2490.429688 2736.28125 2492.421875 2736.789063 2498.789063 2737.6875 Z M 2516.171875 2765.03125 C 2496.992188 2860.460938 2590.078125 2815.773438 2520.195313 2762.53125 C 2517.8125 2761.515625 2517.109375 2761.085938 2516.171875 2765.03125 Z M 2516.171875 2765.03125 " transform="matrix(0.1,0,0,-0.1,0,356.3)"/>
<path style="fill-rule:evenodd;fill:rgb(10.594177%,9.812927%,9.423828%);fill-opacity:1;stroke-width:2.16;stroke-linecap:butt;stroke-linejoin:miter;stroke:rgb(10.594177%,9.812927%,9.423828%);stroke-opacity:1;stroke-miterlimit:4;" d="M 1587.265625 1341.789063 C 1613.398438 1354.953125 1619.296875 1389.328125 1572.1875 1378.117188 C 1516.40625 1364.875 1504.296875 1335.226563 1489.257813 1295.460938 C 1480.078125 1271.242188 1515.9375 1252.804688 1533.125 1277.375 C 1555.703125 1309.757813 1551.40625 1323.742188 1587.265625 1341.789063 Z M 1587.265625 1341.789063 " transform="matrix(0.1,0,0,-0.1,0,356.3)"/>
<path style=" stroke:none;fill-rule:evenodd;fill:rgb(96.09375%,69.334412%,70.896912%);fill-opacity:1;" d="M 167.757813 201.632813 C 162.371094 197.117188 167.109375 192.777344 170.714844 195.386719 C 200.0625 217.289063 222.640625 244.925781 231.953125 277.082031 C 232.890625 221.445313 309.992188 132.621094 375.75 113.878906 C 381.671875 112.1875 387.085938 111.554688 375.683594 112.121094 C 339.164063 113.953125 302.640625 107.105469 266.125 88.335938 C 272.328125 27.882813 215.847656 10.617188 175.460938 33.632813 C 172.957031 35.164063 170.980469 34.738281 169.441406 32.691406 L 155.996094 11.214844 C 126.277344 29.054688 148.113281 24.855469 114.191406 24.503906 C 114.121094 41.34375 116.179688 57.96875 120.328125 74.335938 C 134.085938 85.964844 142.28125 59.535156 151.230469 38.242188 C 152.3125 34.550781 156.242188 36.027344 154.8125 41.257813 C 145.0625 67.234375 138.304688 92.035156 117.414063 84.285156 C 111.859375 81.492188 115.714844 71.851563 108.871094 73.570313 C 99.875 75.828125 69.152344 111.871094 82.546875 116.941406 C 86.023438 119.824219 83.507813 122.246094 80.320313 120.320313 C 51.054688 95.089844 8.566406 141.15625 69.953125 142.855469 C 73.664063 143.179688 71.800781 145.003906 69 145.316406 C 37.816406 146.585938 18.054688 202.074219 37.070313 226.234375 C 42.765625 233.835938 50.191406 219.84375 60.359375 218.546875 C 64.117188 218.210938 65.535156 220.226563 62.597656 221.679688 C 17.222656 242.878906 27.125 286.671875 72.902344 243.621094 C 73.683594 242.761719 75.523438 242.796875 74.613281 244.453125 C 52.753906 286.675781 236.589844 267.414063 167.757813 201.632813 Z M 157.21875 218.488281 C 161.929688 217.367188 161.339844 220.804688 158.726563 222.121094 C 155.140625 223.925781 155.570313 225.324219 153.3125 228.5625 C 151.59375 231.019531 148.007813 229.175781 148.925781 226.753906 C 150.429688 222.777344 151.640625 219.8125 157.21875 218.488281 Z M 248.941406 81.769531 C 247.316406 59.992188 269.363281 74.984375 249.878906 82.53125 C 249.242188 82.621094 249.042969 82.671875 248.941406 81.769531 Z M 237.398438 64.234375 C 237.191406 43.570313 227.050781 41.855469 213.59375 60.714844 C 211.367188 62.664063 208.644531 60.621094 210.402344 58.210938 C 229.316406 37.339844 242.300781 31.652344 241.707031 64.179688 C 242.296875 70.644531 247.109375 63.382813 249.019531 62.148438 C 250.730469 61.382813 252.417969 63.628906 251.257813 65.070313 C 247.589844 69.523438 243.988281 70.253906 240.222656 67.261719 C 240.230469 71.714844 239.234375 75.804688 236.347656 77.742188 C 234.078125 79.503906 232.386719 77.546875 234.320313 75.347656 C 238.574219 67.65625 234.851563 66.0625 233.75 67.886719 C 230.039063 73.734375 229.664063 77.402344 232.328125 79.089844 C 233.347656 79.652344 232.910156 82.871094 230.011719 81.765625 C 222.964844 78.257813 228.929688 62.59375 237.398438 64.234375 Z M 237.398438 64.234375 "/>
<path style=" stroke:none;fill-rule:evenodd;fill:rgb(96.09375%,69.334412%,70.896912%);fill-opacity:1;" d="M 416.25 119.839844 C 397.464844 102.277344 344.445313 127.800781 297.847656 176.824219 C 251.246094 225.851563 228.691406 279.847656 247.472656 297.40625 C 266.253906 314.964844 319.277344 289.445313 365.875 240.421875 C 369.601563 236.503906 373.171875 232.546875 376.582031 228.589844 C 377.0625 226.691406 377.683594 224.679688 378.464844 222.546875 C 382.050781 208.519531 391.289063 199.230469 402.203125 193.921875 C 422.582031 161.003906 429.117188 131.867188 416.25 119.839844 Z M 267.914063 281.976563 C 263.664063 245.789063 337.945313 152.933594 385.78125 136.117188 C 394.355469 134.046875 390.128906 142.105469 375.636719 146.210938 C 351.550781 188.863281 318.277344 227.296875 279.558594 264.003906 C 268.078125 270.59375 269.488281 285.945313 267.914063 281.976563 Z M 311.007813 276.632813 C 310.75 249.027344 370.5 172.308594 407.421875 156.355469 C 414.339844 154.355469 412.3125 160.480469 400.617188 164.339844 C 382.363281 200.195313 353.363281 233.953125 320.792969 263.902344 C 311.53125 269.628906 312.28125 279.742188 311.007813 276.632813 Z M 311.007813 276.632813 "/>
<path style=" stroke:none;fill-rule:evenodd;fill:rgb(96.09375%,69.334412%,70.896912%);fill-opacity:1;" d="M 281.632813 62.839844 C 285.804688 67.421875 291.414063 69.484375 298.730469 68.566406 C 293.496094 60.269531 289.84375 51.839844 286.835938 43.347656 C 280.832031 44.4375 275.296875 49.441406 270.019531 51.34375 C 272.359375 56.253906 273.757813 61.785156 273.785156 68.238281 C 276.296875 67.890625 278.453125 67.148438 278.980469 63.53125 C 279.351563 60.972656 280.121094 60.585938 281.632813 62.839844 Z M 281.632813 62.839844 "/>
<path style=" stroke:none;fill-rule:evenodd;fill:rgb(96.09375%,69.334412%,70.896912%);fill-opacity:1;" d="M 252.019531 80.046875 C 259.007813 74.722656 249.699219 70.253906 251.617188 79.796875 C 251.710938 80.191406 251.78125 80.148438 252.019531 80.046875 Z M 252.019531 80.046875 "/>
<path style=" stroke:none;fill-rule:evenodd;fill:rgb(100%,100%,100%);fill-opacity:1;" d="M 252.019531 80.046875 C 259.007813 74.722656 249.699219 70.253906 251.617188 79.796875 C 251.710938 80.191406 251.78125 80.148438 252.019531 80.046875 Z M 252.019531 80.046875 "/>
<path style=" stroke:none;fill-rule:evenodd;fill:rgb(96.09375%,69.334412%,70.896912%);fill-opacity:1;" d="M 188.847656 257.65625 C 188.847656 254.933594 186.546875 252.722656 183.707031 252.722656 C 180.867188 252.722656 178.566406 254.933594 178.566406 257.65625 C 178.566406 260.378906 180.867188 262.589844 183.707031 262.589844 C 186.546875 262.589844 188.847656 260.378906 188.847656 257.65625 Z M 188.847656 257.65625 "/>
<path style=" stroke:none;fill-rule:evenodd;fill:rgb(96.09375%,69.334412%,70.896912%);fill-opacity:1;" d="M 145.667969 347.960938 C 179.667969 322.671875 143.160156 278.214844 108.546875 281.953125 C 90.382813 285.894531 88.714844 308.132813 122.957031 311.316406 C 136.875 311.496094 135.773438 302.847656 126.140625 301.746094 C 108.652344 299.777344 109.738281 291.472656 117.019531 291.011719 C 138.257813 289.394531 163.121094 326.511719 144.660156 347.394531 C 143.726563 348.574219 144.101563 348.835938 145.667969 347.960938 Z M 145.667969 347.960938 "/>
<path style=" stroke:none;fill-rule:evenodd;fill:rgb(96.09375%,69.334412%,70.896912%);fill-opacity:1;" d="M 137.148438 281.296875 C 149.617188 286.96875 151.359375 298.011719 152.515625 292.214844 C 153.335938 285.34375 151.574219 279.546875 146.832031 277.214844 C 140.242188 274.136719 129.355469 277.753906 137.148438 281.296875 Z M 137.148438 281.296875 "/>
<path style="fill:none;stroke-width:2;stroke-linecap:butt;stroke-linejoin:miter;stroke:rgb(0%,0%,0%);stroke-opacity:1;stroke-miterlimit:4;" d="M 2170.859375 3132.960938 C 2069.0625 3013.78125 2020.546875 3100.617188 2037.65625 2900.851563 C 2053.164063 2719.601563 2401.015625 2604.40625 2485.859375 2665.226563 C 2558.4375 2717.257813 2588.476563 2687.21875 2613.867188 2796.359375 C 2686.5625 3108.703125 2335.703125 3325.851563 2170.859375 3132.960938 Z M 2170.859375 3132.960938 " transform="matrix(0.1,0,0,-0.1,0,356.3)"/>
<path style="fill-rule:evenodd;fill:rgb(100%,100%,100%);fill-opacity:1;stroke-width:2.16;stroke-linecap:butt;stroke-linejoin:miter;stroke:rgb(100%,100%,100%);stroke-opacity:1;stroke-miterlimit:4;" d="M 2373.984375 2920.65625 C 2371.914063 3127.296875 2270.507813 3144.445313 2135.9375 2955.851563 C 2113.671875 2936.359375 2086.445313 2956.789063 2104.023438 2980.890625 C 2293.164063 3189.601563 2423.007813 3246.476563 2417.070313 2921.203125 C 2422.96875 2856.554688 2471.09375 2929.171875 2490.195313 2941.515625 C 2507.304688 2949.171875 2524.179688 2926.710938 2512.578125 2912.296875 C 2475.898438 2867.765625 2439.882813 2860.460938 2402.226563 2890.382813 C 2402.304688 2845.851563 2392.34375 2804.953125 2363.476563 2785.578125 C 2340.78125 2767.960938 2323.867188 2787.53125 2343.203125 2809.523438 C 2385.742188 2886.4375 2348.515625 2902.375 2337.5 2884.132813 C 2300.390625 2825.65625 2296.640625 2788.976563 2323.28125 2772.101563 C 2333.476563 2766.476563 2329.101563 2734.289063 2300.117188 2745.34375 C 2229.648438 2780.421875 2289.296875 2937.0625 2373.984375 2920.65625 Z M 2485.859375 2665.226563 C 2558.4375 2717.257813 2588.476563 2687.21875 2613.867188 2796.359375 C 2686.5625 3108.703125 2335.703125 3325.851563 2170.859375 3132.960938 C 2069.0625 3013.78125 2020.546875 3100.617188 2037.65625 2900.851563 C 2053.164063 2719.601563 2401.015625 2604.40625 2485.859375 2665.226563 Z M 2489.414063 2745.304688 C 2473.164063 2963.078125 2693.632813 2813.15625 2498.789063 2737.6875 C 2492.421875 2736.789063 2490.429688 2736.28125 2489.414063 2745.304688 Z M 2489.414063 2745.304688 " transform="matrix(0.1,0,0,-0.1,0,356.3)"/>
<path style="fill-rule:evenodd;fill:rgb(10.594177%,9.812927%,9.423828%);fill-opacity:1;stroke-width:2.16;stroke-linecap:butt;stroke-linejoin:miter;stroke:rgb(10.594177%,9.812927%,9.423828%);stroke-opacity:1;stroke-miterlimit:4;" d="M 2135.9375 2955.851563 C 2270.507813 3144.445313 2371.914063 3127.296875 2373.984375 2920.65625 C 2289.296875 2937.0625 2229.648438 2780.421875 2300.117188 2745.34375 C 2329.101563 2734.289063 2333.476563 2766.476563 2323.28125 2772.101563 C 2296.640625 2788.976563 2300.390625 2825.65625 2337.5 2884.132813 C 2348.515625 2902.375 2385.742188 2886.4375 2343.203125 2809.523438 C 2323.867188 2787.53125 2340.78125 2767.960938 2363.476563 2785.578125 C 2392.34375 2804.953125 2402.304688 2845.851563 2402.226563 2890.382813 C 2439.882813 2860.460938 2475.898438 2867.765625 2512.578125 2912.296875 C 2524.179688 2926.710938 2507.304688 2949.171875 2490.195313 2941.515625 C 2471.09375 2929.171875 2422.96875 2856.554688 2417.070313 2921.203125 C 2423.007813 3246.476563 2293.164063 3189.601563 2104.023438 2980.890625 C 2086.445313 2956.789063 2113.671875 2936.359375 2135.9375 2955.851563 Z M 2135.9375 2955.851563 " transform="matrix(0.1,0,0,-0.1,0,356.3)"/>
<path style="fill-rule:evenodd;fill:rgb(10.594177%,9.812927%,9.423828%);fill-opacity:1;stroke-width:2.16;stroke-linecap:butt;stroke-linejoin:miter;stroke:rgb(10.594177%,9.812927%,9.423828%);stroke-opacity:1;stroke-miterlimit:4;" d="M 2498.789063 2737.6875 C 2693.632813 2813.15625 2473.164063 2963.078125 2489.414063 2745.304688 C 2490.429688 2736.28125 2492.421875 2736.789063 2498.789063 2737.6875 Z M 2516.171875 2765.03125 C 2496.992188 2860.460938 2590.078125 2815.773438 2520.195313 2762.53125 C 2517.8125 2761.515625 2517.109375 2761.085938 2516.171875 2765.03125 Z M 2516.171875 2765.03125 " transform="matrix(0.1,0,0,-0.1,0,356.3)"/>
<path style=" stroke:none;fill-rule:evenodd;fill:rgb(100%,100%,100%);fill-opacity:1;" d="M 400.617188 164.339844 C 382.363281 200.195313 353.363281 233.953125 320.792969 263.902344 C 311.53125 269.628906 312.28125 279.742188 311.007813 276.632813 C 310.75 249.027344 370.5 172.308594 407.421875 156.355469 C 414.339844 154.355469 412.3125 160.480469 400.617188 164.339844 Z M 375.636719 146.210938 C 351.550781 188.863281 318.277344 227.296875 279.558594 264.003906 C 268.078125 270.59375 269.488281 285.945313 267.914063 281.976563 C 263.664063 245.789063 337.945313 152.933594 385.78125 136.117188 C 394.355469 134.046875 390.128906 142.105469 375.636719 146.210938 Z M 416.25 119.839844 C 397.464844 102.277344 344.445313 127.800781 297.847656 176.824219 C 251.246094 225.851563 228.691406 279.847656 247.472656 297.40625 C 266.253906 314.964844 319.277344 289.445313 365.875 240.421875 C 369.601563 236.503906 373.171875 232.546875 376.582031 228.589844 C 377.0625 226.691406 377.683594 224.679688 378.464844 222.546875 C 382.050781 208.519531 391.289063 199.230469 402.203125 193.921875 C 422.582031 161.003906 429.117188 131.867188 416.25 119.839844 Z M 416.25 119.839844 "/>
</g>
</svg>
